<svg width="28" height="29" viewBox="0 0 28 29" fill="none" xmlns="http://www.w3.org/2000/svg">
<path d="M5.47636 21.9415C6.89567 20.9148 8.30371 20.1273 9.70049 19.579C11.0973 19.0306 12.5954 18.7565 14.195 18.7565C15.7945 18.7565 17.2983 19.0306 18.7064 19.579C20.1144 20.1273 21.5281 20.9148 22.9474 21.9415C23.9387 20.6815 24.6427 19.4098 25.0595 18.1265C25.4762 16.8431 25.6846 15.4898 25.6846 14.0665C25.6846 10.6831 24.5864 7.85397 22.3898 5.57897C20.1933 3.30397 17.4616 2.16647 14.195 2.16647C10.9283 2.16647 8.1967 3.30397 6.00015 5.57897C3.8036 7.85397 2.70532 10.6831 2.70532 14.0665C2.70532 15.4898 2.91934 16.8431 3.34739 18.1265C3.77544 19.4098 4.48509 20.6815 5.47636 21.9415ZM14.1887 15.1165C12.8862 15.1165 11.79 14.6535 10.9001 13.7275C10.0103 12.8015 9.56532 11.664 9.56532 10.315C9.56532 8.96596 10.0124 7.83063 10.9064 6.90897C11.8005 5.9873 12.8988 5.52647 14.2013 5.52647C15.5037 5.52647 16.5999 5.98947 17.4898 6.91548C18.3797 7.84148 18.8246 8.97898 18.8246 10.328C18.8246 11.677 18.3776 12.8123 17.4835 13.734C16.5894 14.6556 15.4912 15.1165 14.1887 15.1165ZM14.2108 28.0665C12.3529 28.0665 10.6016 27.699 8.95705 26.964C7.31245 26.229 5.87624 25.2256 4.64842 23.954C3.42061 22.6823 2.45187 21.1975 1.74222 19.4997C1.03256 17.8018 0.677734 15.9876 0.677734 14.0572C0.677734 12.1267 1.03256 10.3156 1.74222 8.62397C2.45187 6.9323 3.42061 5.45063 4.64842 4.17897C5.87624 2.9073 7.30981 1.90397 8.94914 1.16897C10.5885 0.433967 12.3401 0.0664673 14.204 0.0664673C16.0679 0.0664673 17.8165 0.433967 19.4498 1.16897C21.0831 1.90397 22.5137 2.9073 23.7415 4.17897C24.9693 5.45063 25.9381 6.93267 26.6477 8.62509C27.3574 10.3175 27.7122 12.1258 27.7122 14.0501C27.7122 15.9743 27.3574 17.7881 26.6477 19.4915C25.9381 21.1948 24.9693 22.6823 23.7415 23.954C22.5137 25.2256 21.0828 26.229 19.4487 26.964C17.8147 27.699 16.0687 28.0665 14.2108 28.0665ZM14.195 25.9665C15.4341 25.9665 16.645 25.7798 17.8277 25.4065C19.0105 25.0331 20.1764 24.3798 21.3253 23.4465C20.1764 22.6065 19.0049 21.9648 17.8108 21.5215C16.6168 21.0781 15.4115 20.8565 14.195 20.8565C12.9784 20.8565 11.7731 21.0781 10.5791 21.5215C9.38509 21.9648 8.2136 22.6065 7.06463 23.4465C8.2136 24.3798 9.37946 25.0331 10.5622 25.4065C11.745 25.7798 12.9559 25.9665 14.195 25.9665ZM14.195 13.0165C14.961 13.0165 15.5861 12.7656 16.0705 12.264C16.5549 11.7623 16.797 11.1148 16.797 10.3215C16.797 9.52813 16.5549 8.88063 16.0705 8.37897C15.5861 7.8773 14.961 7.62647 14.195 7.62647C13.429 7.62647 12.8038 7.8773 12.3195 8.37897C11.8351 8.88063 11.5929 9.52813 11.5929 10.3215C11.5929 11.1148 11.8351 11.7623 12.3195 12.264C12.8038 12.7656 13.429 13.0165 14.195 13.0165Z" fill="white"/>
</svg>
