<svg width="245" height="57" viewBox="0 0 245 57" fill="none" xmlns="http://www.w3.org/2000/svg">
<path d="M0.991211 5.33402H11.0329V30.886H16.643V5.33402H26.6847V0.572479H0.991211V5.33402Z" fill="#F0F8FC"/>
<path d="M85.0018 6.18261L90.7062 19.4301H79.3445L85.0018 6.18261ZM77.4587 23.8616H92.5919L95.6092 30.886H101.502L87.8304 0.572479H82.2674L68.6428 30.886H74.4415L77.4587 23.8616Z" fill="#F0F8FC"/>
<path d="M123.424 30.886L136.624 0.572479H131.014L120.831 23.9559L110.742 0.572479H104.661L117.908 30.886H123.424Z" fill="#F0F8FC"/>
<path d="M167.739 26.1245H150.626V17.78H165.288V13.1599H150.626V5.28687H167.127V0.572479H145.016V30.886H167.739V26.1245Z" fill="#F0F8FC"/>
<path d="M200.646 26.1245H184.805V0.572479H179.195V30.886H200.646V26.1245Z" fill="#F0F8FC"/>
<path d="M48.3238 17.4029H41.7237V5.33402H48.3238C53.2739 5.33402 55.8197 7.54978 55.8197 11.3213C55.8197 15.14 53.2739 17.4029 48.3238 17.4029ZM210.31 41.5877H78.3545C72.6501 41.5877 67.2757 38.7591 64.0227 34.0447L55.0182 20.8915C59.1669 19.2886 61.477 15.9414 61.477 11.3213C61.477 4.62686 56.574 0.572479 48.6067 0.572479H36.1135V30.886H41.7237V22.023H48.6067C48.9838 22.023 49.361 22.023 49.7381 21.9758L60.4869 37.6748C64.1642 43.0963 70.2929 46.3021 76.8459 46.3021H210.31L210.499 45.0292V42.672L210.31 41.5877Z" fill="#F0F8FC"/>
<path d="M244.301 43.2849L242.51 41.8234C241.708 41.1634 240.624 40.8334 239.539 40.8805L231.949 41.3991L225.161 31.6403C224.972 31.3575 224.642 31.1689 224.265 31.1217L222.568 30.9332C222.285 30.886 222.049 31.1217 222.143 31.3575L226.009 41.8234L217.335 42.3891L214.223 38.5705C214.129 38.4762 213.987 38.3819 213.799 38.3348L213.045 38.2405C212.903 38.2405 212.809 38.3348 212.856 38.429L213.516 42.672C213.516 43.5206 213.516 44.3692 213.516 45.2649L212.856 49.4607C212.809 49.555 212.903 49.6965 213.045 49.6493L213.799 49.555C213.987 49.555 214.129 49.4607 214.223 49.3193L217.335 45.5006L226.009 46.1135L222.143 56.5323C222.049 56.768 222.285 57.0038 222.568 56.9566L224.265 56.768C224.642 56.7209 224.972 56.5323 225.161 56.2495L231.949 46.4907L239.539 47.0092C240.624 47.1035 241.708 46.7264 242.51 46.0664L244.301 44.6049C244.725 44.2749 244.725 43.6149 244.301 43.2849Z" fill="#F0F8FC"/>
</svg>
