<svg width="29" height="29" viewBox="0 0 29 29" fill="none" xmlns="http://www.w3.org/2000/svg">
<g clip-path="url(#clip0_612_2848)">
<mask id="mask0_612_2848" style="mask-type:luminance" maskUnits="userSpaceOnUse" x="0" y="0" width="29" height="29">
<path d="M0.787109 0.124334H28.7871V28.1648H0.787109V0.124334Z" fill="white"/>
</mask>
<g mask="url(#mask0_612_2848)">
<path d="M14.7872 9.83627C12.4113 9.83627 10.4851 11.7651 10.4851 14.1446C10.4851 16.524 12.4113 18.4529 14.7872 18.4529C17.1632 18.4529 19.0893 16.524 19.0893 14.1446C19.0893 11.7651 17.1632 9.83627 14.7872 9.83627ZM26.8623 11.0702L25.6975 12.0304C24.3689 13.1258 24.3689 15.1633 25.6975 16.2587L26.8623 17.219C27.2751 17.5593 27.3817 18.1486 27.1144 18.6123L24.8144 22.6017C24.547 23.0655 23.9841 23.2677 23.4835 23.0798L22.0706 22.5498C20.459 21.9451 18.6971 22.9639 18.4141 24.6639L18.1661 26.1542C18.0782 26.6823 17.6219 27.0695 17.0873 27.0695H12.4872C11.9526 27.0695 11.4962 26.6823 11.4084 26.1542L11.1603 24.6639C10.8774 22.9639 9.11542 21.9451 7.50384 22.5498L6.09104 23.0798C5.59032 23.2677 5.02742 23.0655 4.76005 22.6017L2.46006 18.6123C2.19275 18.1486 2.29934 17.5593 2.71212 17.219L3.87696 16.2587C5.20559 15.1633 5.20559 13.1258 3.87696 12.0304L2.71212 11.0702C2.29934 10.7298 2.19275 10.1406 2.46006 9.67685L4.76005 5.68738C5.02742 5.22367 5.59032 5.02147 6.09104 5.20932L7.50384 5.73935C9.11542 6.34397 10.8774 5.32526 11.1603 3.62525L11.4084 2.13489C11.4962 1.60678 11.9526 1.21969 12.4872 1.21969H17.0873C17.6219 1.21969 18.0782 1.60678 18.1661 2.13489L18.4141 3.62525C18.6971 5.32526 20.459 6.34397 22.0706 5.73935L23.4835 5.20932C23.9841 5.02147 24.547 5.22367 24.8144 5.68738L27.1144 9.67685C27.3817 10.1406 27.2751 10.7298 26.8623 11.0702Z" fill="white" fill-opacity="0.03" stroke="white" stroke-width="2" stroke-miterlimit="10" stroke-linecap="round" stroke-linejoin="round"/>
</g>
</g>
<defs>
<clipPath id="clip0_612_2848">
<rect width="28" height="28.0405" fill="white" transform="translate(0.787109 0.124329)"/>
</clipPath>
</defs>
</svg>
